<mxfile host="app.diagrams.net" modified="2023-12-21T17:09:42.597Z" agent="Mozilla/5.0 (Windows NT 10.0; Win64; x64) AppleWebKit/537.36 (KHTML, like Gecko) Chrome/120.0.0.0 Safari/537.36" version="22.1.11" etag="yJ2IoeV3BsPRDG6jpR4V" type="github">
  <diagram name="Page-1" id="h8kwgm4LjT8hVCZajooh">
    <mxGraphModel>
      <root>
        <mxCell id="0" />
        <mxCell id="1" parent="0" />
      </root>
    </mxGraphModel>
  </diagram>
</mxfile>
